# xmcd
# Copyright (C) 1995-1998 Ti Kan
#
# Track frame offsets:
#       182
#       14365
#       28150
#       42030
#       59650
#       70485
#       84575
#       94727
#       115810
#       124782
#       140932
#       150020
#       165512
#
# Disc length: 2609 seconds
#
# Revision: 0
# Processed by: cddbd v1.5.2PL0 Copyright (c) Steve Scherf et al.
# Submitted via: CD-Transfer v1.0
#
DISCID=ab0a2f0d
DTITLE=Inspiral Carpets - Hingley, Boon, Lambert, Walsh, Gill
DYEAR=90
DGENRE=
TTITLE0=Real Thing
TTITLE1=Song For A Family
TTITLE2=This Is How It Feels
TTITLE3=Directing Traffik
TTITLE4=Besides Me
TTITLE5=Many Happy Returns
TTITLE6=Memories Of You
TTITLE7=She Cames In The Fall
TTITLE8=Monkey On My Back
TTITLE9=Sun Don't Shine
TTITLE10=Inside My Head
TTITLE11=Move
TTITLE12=Sackville
EXTD=
EXTT0=
EXTT1=
EXTT2=
EXTT3=
EXTT4=
EXTT5=
EXTT6=
EXTT7=
EXTT8=
EXTT9=
EXTT10=
EXTT11=
EXTT12=
PLAYORDER=
